<svg xmlns="http://www.w3.org/2000/svg" width="1200" height="1200" viewBox="0 0 1200 1200">
<rect width="1200" height="1200" fill="transparent"/>
<rect x="0.000" y="0.000" width="41.379" height="41.379" fill="black"/>
<rect x="41.379" y="0.000" width="41.379" height="41.379" fill="black"/>
<rect x="82.759" y="0.000" width="41.379" height="41.379" fill="black"/>
<rect x="124.138" y="0.000" width="41.379" height="41.379" fill="black"/>
<rect x="165.517" y="0.000" width="41.379" height="41.379" fill="black"/>
<rect x="206.897" y="0.000" width="41.379" height="41.379" fill="black"/>
<rect x="248.276" y="0.000" width="41.379" height="41.379" fill="black"/>
<rect x="413.793" y="0.000" width="41.379" height="41.379" fill="black"/>
<rect x="579.310" y="0.000" width="41.379" height="41.379" fill="black"/>
<rect x="744.828" y="0.000" width="41.379" height="41.379" fill="black"/>
<rect x="786.207" y="0.000" width="41.379" height="41.379" fill="black"/>
<rect x="910.345" y="0.000" width="41.379" height="41.379" fill="black"/>
<rect x="951.724" y="0.000" width="41.379" height="41.379" fill="black"/>
<rect x="993.103" y="0.000" width="41.379" height="41.379" fill="black"/>
<rect x="1034.483" y="0.000" width="41.379" height="41.379" fill="black"/>
<rect x="1075.862" y="0.000" width="41.379" height="41.379" fill="black"/>
<rect x="1117.241" y="0.000" width="41.379" height="41.379" fill="black"/>
<rect x="1158.621" y="0.000" width="41.379" height="41.379" fill="black"/>
<rect x="0.000" y="41.379" width="41.379" height="41.379" fill="black"/>
<rect x="248.276" y="41.379" width="41.379" height="41.379" fill="black"/>
<rect x="331.034" y="41.379" width="41.379" height="41.379" fill="black"/>
<rect x="372.414" y="41.379" width="41.379" height="41.379" fill="black"/>
<rect x="496.552" y="41.379" width="41.379" height="41.379" fill="black"/>
<rect x="662.069" y="41.379" width="41.379" height="41.379" fill="black"/>
<rect x="703.448" y="41.379" width="41.379" height="41.379" fill="black"/>
<rect x="744.828" y="41.379" width="41.379" height="41.379" fill="black"/>
<rect x="827.586" y="41.379" width="41.379" height="41.379" fill="black"/>
<rect x="910.345" y="41.379" width="41.379" height="41.379" fill="black"/>
<rect x="1158.621" y="41.379" width="41.379" height="41.379" fill="black"/>
<rect x="0.000" y="82.759" width="41.379" height="41.379" fill="black"/>
<rect x="82.759" y="82.759" width="41.379" height="41.379" fill="black"/>
<rect x="124.138" y="82.759" width="41.379" height="41.379" fill="black"/>
<rect x="165.517" y="82.759" width="41.379" height="41.379" fill="black"/>
<rect x="248.276" y="82.759" width="41.379" height="41.379" fill="black"/>
<rect x="413.793" y="82.759" width="41.379" height="41.379" fill="black"/>
<rect x="455.172" y="82.759" width="41.379" height="41.379" fill="black"/>
<rect x="537.931" y="82.759" width="41.379" height="41.379" fill="black"/>
<rect x="579.310" y="82.759" width="41.379" height="41.379" fill="black"/>
<rect x="620.690" y="82.759" width="41.379" height="41.379" fill="black"/>
<rect x="662.069" y="82.759" width="41.379" height="41.379" fill="black"/>
<rect x="703.448" y="82.759" width="41.379" height="41.379" fill="black"/>
<rect x="786.207" y="82.759" width="41.379" height="41.379" fill="black"/>
<rect x="827.586" y="82.759" width="41.379" height="41.379" fill="black"/>
<rect x="910.345" y="82.759" width="41.379" height="41.379" fill="black"/>
<rect x="993.103" y="82.759" width="41.379" height="41.379" fill="black"/>
<rect x="1034.483" y="82.759" width="41.379" height="41.379" fill="black"/>
<rect x="1075.862" y="82.759" width="41.379" height="41.379" fill="black"/>
<rect x="1158.621" y="82.759" width="41.379" height="41.379" fill="black"/>
<rect x="0.000" y="124.138" width="41.379" height="41.379" fill="black"/>
<rect x="82.759" y="124.138" width="41.379" height="41.379" fill="black"/>
<rect x="124.138" y="124.138" width="41.379" height="41.379" fill="black"/>
<rect x="165.517" y="124.138" width="41.379" height="41.379" fill="black"/>
<rect x="248.276" y="124.138" width="41.379" height="41.379" fill="black"/>
<rect x="537.931" y="124.138" width="41.379" height="41.379" fill="black"/>
<rect x="744.828" y="124.138" width="41.379" height="41.379" fill="black"/>
<rect x="786.207" y="124.138" width="41.379" height="41.379" fill="black"/>
<rect x="827.586" y="124.138" width="41.379" height="41.379" fill="black"/>
<rect x="910.345" y="124.138" width="41.379" height="41.379" fill="black"/>
<rect x="993.103" y="124.138" width="41.379" height="41.379" fill="black"/>
<rect x="1034.483" y="124.138" width="41.379" height="41.379" fill="black"/>
<rect x="1075.862" y="124.138" width="41.379" height="41.379" fill="black"/>
<rect x="1158.621" y="124.138" width="41.379" height="41.379" fill="black"/>
<rect x="0.000" y="165.517" width="41.379" height="41.379" fill="black"/>
<rect x="82.759" y="165.517" width="41.379" height="41.379" fill="black"/>
<rect x="124.138" y="165.517" width="41.379" height="41.379" fill="black"/>
<rect x="165.517" y="165.517" width="41.379" height="41.379" fill="black"/>
<rect x="248.276" y="165.517" width="41.379" height="41.379" fill="black"/>
<rect x="372.414" y="165.517" width="41.379" height="41.379" fill="black"/>
<rect x="537.931" y="165.517" width="41.379" height="41.379" fill="black"/>
<rect x="579.310" y="165.517" width="41.379" height="41.379" fill="black"/>
<rect x="910.345" y="165.517" width="41.379" height="41.379" fill="black"/>
<rect x="993.103" y="165.517" width="41.379" height="41.379" fill="black"/>
<rect x="1034.483" y="165.517" width="41.379" height="41.379" fill="black"/>
<rect x="1075.862" y="165.517" width="41.379" height="41.379" fill="black"/>
<rect x="1158.621" y="165.517" width="41.379" height="41.379" fill="black"/>
<rect x="0.000" y="206.897" width="41.379" height="41.379" fill="black"/>
<rect x="248.276" y="206.897" width="41.379" height="41.379" fill="black"/>
<rect x="331.034" y="206.897" width="41.379" height="41.379" fill="black"/>
<rect x="496.552" y="206.897" width="41.379" height="41.379" fill="black"/>
<rect x="579.310" y="206.897" width="41.379" height="41.379" fill="black"/>
<rect x="620.690" y="206.897" width="41.379" height="41.379" fill="black"/>
<rect x="744.828" y="206.897" width="41.379" height="41.379" fill="black"/>
<rect x="786.207" y="206.897" width="41.379" height="41.379" fill="black"/>
<rect x="910.345" y="206.897" width="41.379" height="41.379" fill="black"/>
<rect x="1158.621" y="206.897" width="41.379" height="41.379" fill="black"/>
<rect x="0.000" y="248.276" width="41.379" height="41.379" fill="black"/>
<rect x="41.379" y="248.276" width="41.379" height="41.379" fill="black"/>
<rect x="82.759" y="248.276" width="41.379" height="41.379" fill="black"/>
<rect x="124.138" y="248.276" width="41.379" height="41.379" fill="black"/>
<rect x="165.517" y="248.276" width="41.379" height="41.379" fill="black"/>
<rect x="206.897" y="248.276" width="41.379" height="41.379" fill="black"/>
<rect x="248.276" y="248.276" width="41.379" height="41.379" fill="black"/>
<rect x="331.034" y="248.276" width="41.379" height="41.379" fill="black"/>
<rect x="413.793" y="248.276" width="41.379" height="41.379" fill="black"/>
<rect x="496.552" y="248.276" width="41.379" height="41.379" fill="black"/>
<rect x="579.310" y="248.276" width="41.379" height="41.379" fill="black"/>
<rect x="662.069" y="248.276" width="41.379" height="41.379" fill="black"/>
<rect x="744.828" y="248.276" width="41.379" height="41.379" fill="black"/>
<rect x="827.586" y="248.276" width="41.379" height="41.379" fill="black"/>
<rect x="910.345" y="248.276" width="41.379" height="41.379" fill="black"/>
<rect x="951.724" y="248.276" width="41.379" height="41.379" fill="black"/>
<rect x="993.103" y="248.276" width="41.379" height="41.379" fill="black"/>
<rect x="1034.483" y="248.276" width="41.379" height="41.379" fill="black"/>
<rect x="1075.862" y="248.276" width="41.379" height="41.379" fill="black"/>
<rect x="1117.241" y="248.276" width="41.379" height="41.379" fill="black"/>
<rect x="1158.621" y="248.276" width="41.379" height="41.379" fill="black"/>
<rect x="331.034" y="289.655" width="41.379" height="41.379" fill="black"/>
<rect x="372.414" y="289.655" width="41.379" height="41.379" fill="black"/>
<rect x="413.793" y="289.655" width="41.379" height="41.379" fill="black"/>
<rect x="496.552" y="289.655" width="41.379" height="41.379" fill="black"/>
<rect x="537.931" y="289.655" width="41.379" height="41.379" fill="black"/>
<rect x="662.069" y="289.655" width="41.379" height="41.379" fill="black"/>
<rect x="703.448" y="289.655" width="41.379" height="41.379" fill="black"/>
<rect x="744.828" y="289.655" width="41.379" height="41.379" fill="black"/>
<rect x="827.586" y="289.655" width="41.379" height="41.379" fill="black"/>
<rect x="165.517" y="331.034" width="41.379" height="41.379" fill="black"/>
<rect x="206.897" y="331.034" width="41.379" height="41.379" fill="black"/>
<rect x="248.276" y="331.034" width="41.379" height="41.379" fill="black"/>
<rect x="289.655" y="331.034" width="41.379" height="41.379" fill="black"/>
<rect x="455.172" y="331.034" width="41.379" height="41.379" fill="black"/>
<rect x="496.552" y="331.034" width="41.379" height="41.379" fill="black"/>
<rect x="537.931" y="331.034" width="41.379" height="41.379" fill="black"/>
<rect x="579.310" y="331.034" width="41.379" height="41.379" fill="black"/>
<rect x="620.690" y="331.034" width="41.379" height="41.379" fill="black"/>
<rect x="662.069" y="331.034" width="41.379" height="41.379" fill="black"/>
<rect x="744.828" y="331.034" width="41.379" height="41.379" fill="black"/>
<rect x="786.207" y="331.034" width="41.379" height="41.379" fill="black"/>
<rect x="910.345" y="331.034" width="41.379" height="41.379" fill="black"/>
<rect x="951.724" y="331.034" width="41.379" height="41.379" fill="black"/>
<rect x="1117.241" y="331.034" width="41.379" height="41.379" fill="black"/>
<rect x="0.000" y="372.414" width="41.379" height="41.379" fill="black"/>
<rect x="41.379" y="372.414" width="41.379" height="41.379" fill="black"/>
<rect x="206.897" y="372.414" width="41.379" height="41.379" fill="black"/>
<rect x="331.034" y="372.414" width="41.379" height="41.379" fill="black"/>
<rect x="413.793" y="372.414" width="41.379" height="41.379" fill="black"/>
<rect x="620.690" y="372.414" width="41.379" height="41.379" fill="black"/>
<rect x="662.069" y="372.414" width="41.379" height="41.379" fill="black"/>
<rect x="786.207" y="372.414" width="41.379" height="41.379" fill="black"/>
<rect x="827.586" y="372.414" width="41.379" height="41.379" fill="black"/>
<rect x="868.966" y="372.414" width="41.379" height="41.379" fill="black"/>
<rect x="993.103" y="372.414" width="41.379" height="41.379" fill="black"/>
<rect x="1158.621" y="372.414" width="41.379" height="41.379" fill="black"/>
<rect x="82.759" y="413.793" width="41.379" height="41.379" fill="black"/>
<rect x="124.138" y="413.793" width="41.379" height="41.379" fill="black"/>
<rect x="248.276" y="413.793" width="41.379" height="41.379" fill="black"/>
<rect x="289.655" y="413.793" width="41.379" height="41.379" fill="black"/>
<rect x="413.793" y="413.793" width="41.379" height="41.379" fill="black"/>
<rect x="537.931" y="413.793" width="41.379" height="41.379" fill="black"/>
<rect x="620.690" y="413.793" width="41.379" height="41.379" fill="black"/>
<rect x="703.448" y="413.793" width="41.379" height="41.379" fill="black"/>
<rect x="744.828" y="413.793" width="41.379" height="41.379" fill="black"/>
<rect x="827.586" y="413.793" width="41.379" height="41.379" fill="black"/>
<rect x="1034.483" y="413.793" width="41.379" height="41.379" fill="black"/>
<rect x="1075.862" y="413.793" width="41.379" height="41.379" fill="black"/>
<rect x="1158.621" y="413.793" width="41.379" height="41.379" fill="black"/>
<rect x="0.000" y="455.172" width="41.379" height="41.379" fill="black"/>
<rect x="41.379" y="455.172" width="41.379" height="41.379" fill="black"/>
<rect x="124.138" y="455.172" width="41.379" height="41.379" fill="black"/>
<rect x="165.517" y="455.172" width="41.379" height="41.379" fill="black"/>
<rect x="206.897" y="455.172" width="41.379" height="41.379" fill="black"/>
<rect x="289.655" y="455.172" width="41.379" height="41.379" fill="black"/>
<rect x="331.034" y="455.172" width="41.379" height="41.379" fill="black"/>
<rect x="372.414" y="455.172" width="41.379" height="41.379" fill="black"/>
<rect x="455.172" y="455.172" width="41.379" height="41.379" fill="black"/>
<rect x="496.552" y="455.172" width="41.379" height="41.379" fill="black"/>
<rect x="579.310" y="455.172" width="41.379" height="41.379" fill="black"/>
<rect x="620.690" y="455.172" width="41.379" height="41.379" fill="black"/>
<rect x="662.069" y="455.172" width="41.379" height="41.379" fill="black"/>
<rect x="744.828" y="455.172" width="41.379" height="41.379" fill="black"/>
<rect x="868.966" y="455.172" width="41.379" height="41.379" fill="black"/>
<rect x="951.724" y="455.172" width="41.379" height="41.379" fill="black"/>
<rect x="1034.483" y="455.172" width="41.379" height="41.379" fill="black"/>
<rect x="0.000" y="496.552" width="41.379" height="41.379" fill="black"/>
<rect x="82.759" y="496.552" width="41.379" height="41.379" fill="black"/>
<rect x="124.138" y="496.552" width="41.379" height="41.379" fill="black"/>
<rect x="206.897" y="496.552" width="41.379" height="41.379" fill="black"/>
<rect x="248.276" y="496.552" width="41.379" height="41.379" fill="black"/>
<rect x="331.034" y="496.552" width="41.379" height="41.379" fill="black"/>
<rect x="372.414" y="496.552" width="41.379" height="41.379" fill="black"/>
<rect x="579.310" y="496.552" width="41.379" height="41.379" fill="black"/>
<rect x="786.207" y="496.552" width="41.379" height="41.379" fill="black"/>
<rect x="827.586" y="496.552" width="41.379" height="41.379" fill="black"/>
<rect x="868.966" y="496.552" width="41.379" height="41.379" fill="black"/>
<rect x="1117.241" y="496.552" width="41.379" height="41.379" fill="black"/>
<rect x="0.000" y="537.931" width="41.379" height="41.379" fill="black"/>
<rect x="41.379" y="537.931" width="41.379" height="41.379" fill="black"/>
<rect x="289.655" y="537.931" width="41.379" height="41.379" fill="black"/>
<rect x="372.414" y="537.931" width="41.379" height="41.379" fill="black"/>
<rect x="537.931" y="537.931" width="41.379" height="41.379" fill="black"/>
<rect x="579.310" y="537.931" width="41.379" height="41.379" fill="black"/>
<rect x="620.690" y="537.931" width="41.379" height="41.379" fill="black"/>
<rect x="703.448" y="537.931" width="41.379" height="41.379" fill="black"/>
<rect x="744.828" y="537.931" width="41.379" height="41.379" fill="black"/>
<rect x="910.345" y="537.931" width="41.379" height="41.379" fill="black"/>
<rect x="951.724" y="537.931" width="41.379" height="41.379" fill="black"/>
<rect x="993.103" y="537.931" width="41.379" height="41.379" fill="black"/>
<rect x="1158.621" y="537.931" width="41.379" height="41.379" fill="black"/>
<rect x="0.000" y="579.310" width="41.379" height="41.379" fill="black"/>
<rect x="41.379" y="579.310" width="41.379" height="41.379" fill="black"/>
<rect x="248.276" y="579.310" width="41.379" height="41.379" fill="black"/>
<rect x="413.793" y="579.310" width="41.379" height="41.379" fill="black"/>
<rect x="455.172" y="579.310" width="41.379" height="41.379" fill="black"/>
<rect x="496.552" y="579.310" width="41.379" height="41.379" fill="black"/>
<rect x="537.931" y="579.310" width="41.379" height="41.379" fill="black"/>
<rect x="827.586" y="579.310" width="41.379" height="41.379" fill="black"/>
<rect x="1034.483" y="579.310" width="41.379" height="41.379" fill="black"/>
<rect x="1075.862" y="579.310" width="41.379" height="41.379" fill="black"/>
<rect x="1158.621" y="579.310" width="41.379" height="41.379" fill="black"/>
<rect x="206.897" y="620.690" width="41.379" height="41.379" fill="black"/>
<rect x="331.034" y="620.690" width="41.379" height="41.379" fill="black"/>
<rect x="455.172" y="620.690" width="41.379" height="41.379" fill="black"/>
<rect x="537.931" y="620.690" width="41.379" height="41.379" fill="black"/>
<rect x="579.310" y="620.690" width="41.379" height="41.379" fill="black"/>
<rect x="620.690" y="620.690" width="41.379" height="41.379" fill="black"/>
<rect x="662.069" y="620.690" width="41.379" height="41.379" fill="black"/>
<rect x="744.828" y="620.690" width="41.379" height="41.379" fill="black"/>
<rect x="786.207" y="620.690" width="41.379" height="41.379" fill="black"/>
<rect x="868.966" y="620.690" width="41.379" height="41.379" fill="black"/>
<rect x="1034.483" y="620.690" width="41.379" height="41.379" fill="black"/>
<rect x="1117.241" y="620.690" width="41.379" height="41.379" fill="black"/>
<rect x="41.379" y="662.069" width="41.379" height="41.379" fill="black"/>
<rect x="124.138" y="662.069" width="41.379" height="41.379" fill="black"/>
<rect x="248.276" y="662.069" width="41.379" height="41.379" fill="black"/>
<rect x="455.172" y="662.069" width="41.379" height="41.379" fill="black"/>
<rect x="496.552" y="662.069" width="41.379" height="41.379" fill="black"/>
<rect x="579.310" y="662.069" width="41.379" height="41.379" fill="black"/>
<rect x="620.690" y="662.069" width="41.379" height="41.379" fill="black"/>
<rect x="662.069" y="662.069" width="41.379" height="41.379" fill="black"/>
<rect x="827.586" y="662.069" width="41.379" height="41.379" fill="black"/>
<rect x="868.966" y="662.069" width="41.379" height="41.379" fill="black"/>
<rect x="910.345" y="662.069" width="41.379" height="41.379" fill="black"/>
<rect x="993.103" y="662.069" width="41.379" height="41.379" fill="black"/>
<rect x="1034.483" y="662.069" width="41.379" height="41.379" fill="black"/>
<rect x="1117.241" y="662.069" width="41.379" height="41.379" fill="black"/>
<rect x="1158.621" y="662.069" width="41.379" height="41.379" fill="black"/>
<rect x="0.000" y="703.448" width="41.379" height="41.379" fill="black"/>
<rect x="41.379" y="703.448" width="41.379" height="41.379" fill="black"/>
<rect x="82.759" y="703.448" width="41.379" height="41.379" fill="black"/>
<rect x="124.138" y="703.448" width="41.379" height="41.379" fill="black"/>
<rect x="289.655" y="703.448" width="41.379" height="41.379" fill="black"/>
<rect x="331.034" y="703.448" width="41.379" height="41.379" fill="black"/>
<rect x="455.172" y="703.448" width="41.379" height="41.379" fill="black"/>
<rect x="496.552" y="703.448" width="41.379" height="41.379" fill="black"/>
<rect x="537.931" y="703.448" width="41.379" height="41.379" fill="black"/>
<rect x="579.310" y="703.448" width="41.379" height="41.379" fill="black"/>
<rect x="703.448" y="703.448" width="41.379" height="41.379" fill="black"/>
<rect x="744.828" y="703.448" width="41.379" height="41.379" fill="black"/>
<rect x="786.207" y="703.448" width="41.379" height="41.379" fill="black"/>
<rect x="951.724" y="703.448" width="41.379" height="41.379" fill="black"/>
<rect x="1034.483" y="703.448" width="41.379" height="41.379" fill="black"/>
<rect x="1075.862" y="703.448" width="41.379" height="41.379" fill="black"/>
<rect x="1158.621" y="703.448" width="41.379" height="41.379" fill="black"/>
<rect x="82.759" y="744.828" width="41.379" height="41.379" fill="black"/>
<rect x="124.138" y="744.828" width="41.379" height="41.379" fill="black"/>
<rect x="248.276" y="744.828" width="41.379" height="41.379" fill="black"/>
<rect x="289.655" y="744.828" width="41.379" height="41.379" fill="black"/>
<rect x="372.414" y="744.828" width="41.379" height="41.379" fill="black"/>
<rect x="413.793" y="744.828" width="41.379" height="41.379" fill="black"/>
<rect x="496.552" y="744.828" width="41.379" height="41.379" fill="black"/>
<rect x="537.931" y="744.828" width="41.379" height="41.379" fill="black"/>
<rect x="579.310" y="744.828" width="41.379" height="41.379" fill="black"/>
<rect x="620.690" y="744.828" width="41.379" height="41.379" fill="black"/>
<rect x="662.069" y="744.828" width="41.379" height="41.379" fill="black"/>
<rect x="703.448" y="744.828" width="41.379" height="41.379" fill="black"/>
<rect x="744.828" y="744.828" width="41.379" height="41.379" fill="black"/>
<rect x="786.207" y="744.828" width="41.379" height="41.379" fill="black"/>
<rect x="951.724" y="744.828" width="41.379" height="41.379" fill="black"/>
<rect x="993.103" y="744.828" width="41.379" height="41.379" fill="black"/>
<rect x="1075.862" y="744.828" width="41.379" height="41.379" fill="black"/>
<rect x="1158.621" y="744.828" width="41.379" height="41.379" fill="black"/>
<rect x="124.138" y="786.207" width="41.379" height="41.379" fill="black"/>
<rect x="165.517" y="786.207" width="41.379" height="41.379" fill="black"/>
<rect x="206.897" y="786.207" width="41.379" height="41.379" fill="black"/>
<rect x="289.655" y="786.207" width="41.379" height="41.379" fill="black"/>
<rect x="331.034" y="786.207" width="41.379" height="41.379" fill="black"/>
<rect x="372.414" y="786.207" width="41.379" height="41.379" fill="black"/>
<rect x="413.793" y="786.207" width="41.379" height="41.379" fill="black"/>
<rect x="455.172" y="786.207" width="41.379" height="41.379" fill="black"/>
<rect x="496.552" y="786.207" width="41.379" height="41.379" fill="black"/>
<rect x="537.931" y="786.207" width="41.379" height="41.379" fill="black"/>
<rect x="703.448" y="786.207" width="41.379" height="41.379" fill="black"/>
<rect x="744.828" y="786.207" width="41.379" height="41.379" fill="black"/>
<rect x="786.207" y="786.207" width="41.379" height="41.379" fill="black"/>
<rect x="827.586" y="786.207" width="41.379" height="41.379" fill="black"/>
<rect x="910.345" y="786.207" width="41.379" height="41.379" fill="black"/>
<rect x="993.103" y="786.207" width="41.379" height="41.379" fill="black"/>
<rect x="1034.483" y="786.207" width="41.379" height="41.379" fill="black"/>
<rect x="1117.241" y="786.207" width="41.379" height="41.379" fill="black"/>
<rect x="1158.621" y="786.207" width="41.379" height="41.379" fill="black"/>
<rect x="0.000" y="827.586" width="41.379" height="41.379" fill="black"/>
<rect x="41.379" y="827.586" width="41.379" height="41.379" fill="black"/>
<rect x="82.759" y="827.586" width="41.379" height="41.379" fill="black"/>
<rect x="124.138" y="827.586" width="41.379" height="41.379" fill="black"/>
<rect x="165.517" y="827.586" width="41.379" height="41.379" fill="black"/>
<rect x="206.897" y="827.586" width="41.379" height="41.379" fill="black"/>
<rect x="248.276" y="827.586" width="41.379" height="41.379" fill="black"/>
<rect x="372.414" y="827.586" width="41.379" height="41.379" fill="black"/>
<rect x="537.931" y="827.586" width="41.379" height="41.379" fill="black"/>
<rect x="620.690" y="827.586" width="41.379" height="41.379" fill="black"/>
<rect x="662.069" y="827.586" width="41.379" height="41.379" fill="black"/>
<rect x="827.586" y="827.586" width="41.379" height="41.379" fill="black"/>
<rect x="868.966" y="827.586" width="41.379" height="41.379" fill="black"/>
<rect x="910.345" y="827.586" width="41.379" height="41.379" fill="black"/>
<rect x="951.724" y="827.586" width="41.379" height="41.379" fill="black"/>
<rect x="993.103" y="827.586" width="41.379" height="41.379" fill="black"/>
<rect x="1034.483" y="827.586" width="41.379" height="41.379" fill="black"/>
<rect x="331.034" y="868.966" width="41.379" height="41.379" fill="black"/>
<rect x="372.414" y="868.966" width="41.379" height="41.379" fill="black"/>
<rect x="413.793" y="868.966" width="41.379" height="41.379" fill="black"/>
<rect x="496.552" y="868.966" width="41.379" height="41.379" fill="black"/>
<rect x="579.310" y="868.966" width="41.379" height="41.379" fill="black"/>
<rect x="620.690" y="868.966" width="41.379" height="41.379" fill="black"/>
<rect x="744.828" y="868.966" width="41.379" height="41.379" fill="black"/>
<rect x="786.207" y="868.966" width="41.379" height="41.379" fill="black"/>
<rect x="827.586" y="868.966" width="41.379" height="41.379" fill="black"/>
<rect x="993.103" y="868.966" width="41.379" height="41.379" fill="black"/>
<rect x="1158.621" y="868.966" width="41.379" height="41.379" fill="black"/>
<rect x="0.000" y="910.345" width="41.379" height="41.379" fill="black"/>
<rect x="41.379" y="910.345" width="41.379" height="41.379" fill="black"/>
<rect x="82.759" y="910.345" width="41.379" height="41.379" fill="black"/>
<rect x="124.138" y="910.345" width="41.379" height="41.379" fill="black"/>
<rect x="165.517" y="910.345" width="41.379" height="41.379" fill="black"/>
<rect x="206.897" y="910.345" width="41.379" height="41.379" fill="black"/>
<rect x="248.276" y="910.345" width="41.379" height="41.379" fill="black"/>
<rect x="331.034" y="910.345" width="41.379" height="41.379" fill="black"/>
<rect x="496.552" y="910.345" width="41.379" height="41.379" fill="black"/>
<rect x="620.690" y="910.345" width="41.379" height="41.379" fill="black"/>
<rect x="703.448" y="910.345" width="41.379" height="41.379" fill="black"/>
<rect x="786.207" y="910.345" width="41.379" height="41.379" fill="black"/>
<rect x="827.586" y="910.345" width="41.379" height="41.379" fill="black"/>
<rect x="910.345" y="910.345" width="41.379" height="41.379" fill="black"/>
<rect x="993.103" y="910.345" width="41.379" height="41.379" fill="black"/>
<rect x="1117.241" y="910.345" width="41.379" height="41.379" fill="black"/>
<rect x="1158.621" y="910.345" width="41.379" height="41.379" fill="black"/>
<rect x="0.000" y="951.724" width="41.379" height="41.379" fill="black"/>
<rect x="248.276" y="951.724" width="41.379" height="41.379" fill="black"/>
<rect x="331.034" y="951.724" width="41.379" height="41.379" fill="black"/>
<rect x="372.414" y="951.724" width="41.379" height="41.379" fill="black"/>
<rect x="413.793" y="951.724" width="41.379" height="41.379" fill="black"/>
<rect x="455.172" y="951.724" width="41.379" height="41.379" fill="black"/>
<rect x="496.552" y="951.724" width="41.379" height="41.379" fill="black"/>
<rect x="537.931" y="951.724" width="41.379" height="41.379" fill="black"/>
<rect x="620.690" y="951.724" width="41.379" height="41.379" fill="black"/>
<rect x="703.448" y="951.724" width="41.379" height="41.379" fill="black"/>
<rect x="744.828" y="951.724" width="41.379" height="41.379" fill="black"/>
<rect x="786.207" y="951.724" width="41.379" height="41.379" fill="black"/>
<rect x="827.586" y="951.724" width="41.379" height="41.379" fill="black"/>
<rect x="993.103" y="951.724" width="41.379" height="41.379" fill="black"/>
<rect x="1034.483" y="951.724" width="41.379" height="41.379" fill="black"/>
<rect x="0.000" y="993.103" width="41.379" height="41.379" fill="black"/>
<rect x="82.759" y="993.103" width="41.379" height="41.379" fill="black"/>
<rect x="124.138" y="993.103" width="41.379" height="41.379" fill="black"/>
<rect x="165.517" y="993.103" width="41.379" height="41.379" fill="black"/>
<rect x="248.276" y="993.103" width="41.379" height="41.379" fill="black"/>
<rect x="331.034" y="993.103" width="41.379" height="41.379" fill="black"/>
<rect x="372.414" y="993.103" width="41.379" height="41.379" fill="black"/>
<rect x="496.552" y="993.103" width="41.379" height="41.379" fill="black"/>
<rect x="579.310" y="993.103" width="41.379" height="41.379" fill="black"/>
<rect x="744.828" y="993.103" width="41.379" height="41.379" fill="black"/>
<rect x="786.207" y="993.103" width="41.379" height="41.379" fill="black"/>
<rect x="827.586" y="993.103" width="41.379" height="41.379" fill="black"/>
<rect x="868.966" y="993.103" width="41.379" height="41.379" fill="black"/>
<rect x="910.345" y="993.103" width="41.379" height="41.379" fill="black"/>
<rect x="951.724" y="993.103" width="41.379" height="41.379" fill="black"/>
<rect x="993.103" y="993.103" width="41.379" height="41.379" fill="black"/>
<rect x="1034.483" y="993.103" width="41.379" height="41.379" fill="black"/>
<rect x="0.000" y="1034.483" width="41.379" height="41.379" fill="black"/>
<rect x="82.759" y="1034.483" width="41.379" height="41.379" fill="black"/>
<rect x="124.138" y="1034.483" width="41.379" height="41.379" fill="black"/>
<rect x="165.517" y="1034.483" width="41.379" height="41.379" fill="black"/>
<rect x="248.276" y="1034.483" width="41.379" height="41.379" fill="black"/>
<rect x="372.414" y="1034.483" width="41.379" height="41.379" fill="black"/>
<rect x="413.793" y="1034.483" width="41.379" height="41.379" fill="black"/>
<rect x="496.552" y="1034.483" width="41.379" height="41.379" fill="black"/>
<rect x="579.310" y="1034.483" width="41.379" height="41.379" fill="black"/>
<rect x="744.828" y="1034.483" width="41.379" height="41.379" fill="black"/>
<rect x="827.586" y="1034.483" width="41.379" height="41.379" fill="black"/>
<rect x="868.966" y="1034.483" width="41.379" height="41.379" fill="black"/>
<rect x="1075.862" y="1034.483" width="41.379" height="41.379" fill="black"/>
<rect x="1117.241" y="1034.483" width="41.379" height="41.379" fill="black"/>
<rect x="0.000" y="1075.862" width="41.379" height="41.379" fill="black"/>
<rect x="82.759" y="1075.862" width="41.379" height="41.379" fill="black"/>
<rect x="124.138" y="1075.862" width="41.379" height="41.379" fill="black"/>
<rect x="165.517" y="1075.862" width="41.379" height="41.379" fill="black"/>
<rect x="248.276" y="1075.862" width="41.379" height="41.379" fill="black"/>
<rect x="413.793" y="1075.862" width="41.379" height="41.379" fill="black"/>
<rect x="455.172" y="1075.862" width="41.379" height="41.379" fill="black"/>
<rect x="620.690" y="1075.862" width="41.379" height="41.379" fill="black"/>
<rect x="662.069" y="1075.862" width="41.379" height="41.379" fill="black"/>
<rect x="868.966" y="1075.862" width="41.379" height="41.379" fill="black"/>
<rect x="1034.483" y="1075.862" width="41.379" height="41.379" fill="black"/>
<rect x="1075.862" y="1075.862" width="41.379" height="41.379" fill="black"/>
<rect x="1117.241" y="1075.862" width="41.379" height="41.379" fill="black"/>
<rect x="1158.621" y="1075.862" width="41.379" height="41.379" fill="black"/>
<rect x="0.000" y="1117.241" width="41.379" height="41.379" fill="black"/>
<rect x="248.276" y="1117.241" width="41.379" height="41.379" fill="black"/>
<rect x="372.414" y="1117.241" width="41.379" height="41.379" fill="black"/>
<rect x="413.793" y="1117.241" width="41.379" height="41.379" fill="black"/>
<rect x="455.172" y="1117.241" width="41.379" height="41.379" fill="black"/>
<rect x="496.552" y="1117.241" width="41.379" height="41.379" fill="black"/>
<rect x="537.931" y="1117.241" width="41.379" height="41.379" fill="black"/>
<rect x="662.069" y="1117.241" width="41.379" height="41.379" fill="black"/>
<rect x="786.207" y="1117.241" width="41.379" height="41.379" fill="black"/>
<rect x="868.966" y="1117.241" width="41.379" height="41.379" fill="black"/>
<rect x="910.345" y="1117.241" width="41.379" height="41.379" fill="black"/>
<rect x="951.724" y="1117.241" width="41.379" height="41.379" fill="black"/>
<rect x="1117.241" y="1117.241" width="41.379" height="41.379" fill="black"/>
<rect x="1158.621" y="1117.241" width="41.379" height="41.379" fill="black"/>
<rect x="0.000" y="1158.621" width="41.379" height="41.379" fill="black"/>
<rect x="41.379" y="1158.621" width="41.379" height="41.379" fill="black"/>
<rect x="82.759" y="1158.621" width="41.379" height="41.379" fill="black"/>
<rect x="124.138" y="1158.621" width="41.379" height="41.379" fill="black"/>
<rect x="165.517" y="1158.621" width="41.379" height="41.379" fill="black"/>
<rect x="206.897" y="1158.621" width="41.379" height="41.379" fill="black"/>
<rect x="248.276" y="1158.621" width="41.379" height="41.379" fill="black"/>
<rect x="372.414" y="1158.621" width="41.379" height="41.379" fill="black"/>
<rect x="455.172" y="1158.621" width="41.379" height="41.379" fill="black"/>
<rect x="579.310" y="1158.621" width="41.379" height="41.379" fill="black"/>
<rect x="620.690" y="1158.621" width="41.379" height="41.379" fill="black"/>
<rect x="703.448" y="1158.621" width="41.379" height="41.379" fill="black"/>
<rect x="744.828" y="1158.621" width="41.379" height="41.379" fill="black"/>
<rect x="786.207" y="1158.621" width="41.379" height="41.379" fill="black"/>
<rect x="827.586" y="1158.621" width="41.379" height="41.379" fill="black"/>
<rect x="868.966" y="1158.621" width="41.379" height="41.379" fill="black"/>
<rect x="951.724" y="1158.621" width="41.379" height="41.379" fill="black"/>
<rect x="993.103" y="1158.621" width="41.379" height="41.379" fill="black"/>
<rect x="1034.483" y="1158.621" width="41.379" height="41.379" fill="black"/>
<rect x="1075.862" y="1158.621" width="41.379" height="41.379" fill="black"/>
<rect x="1117.241" y="1158.621" width="41.379" height="41.379" fill="black"/>
</svg>